<svg width="60" height="51" viewBox="0 0 60 51" fill="none" xmlns="http://www.w3.org/2000/svg">
<path d="M55.1594 0.578125H38.3838C36.7561 0.578125 35.1507 0.957499 33.6949 1.6862C32.239 2.41491 30.9726 3.47292 29.996 4.77647C29.0194 3.47292 27.753 2.41491 26.2971 1.6862C24.8413 0.957499 23.2359 0.578125 21.6082 0.578125H4.83258C3.72028 0.578125 2.65355 1.02045 1.86704 1.80779C1.08053 2.59513 0.638672 3.663 0.638672 4.77647V38.3632C0.638672 39.4767 1.08053 40.5446 1.86704 41.3319C2.65355 42.1192 3.72028 42.5616 4.83258 42.5616H21.6082C23.2766 42.5616 24.8767 43.225 26.0565 44.4061C27.2363 45.5871 27.899 47.1889 27.899 48.8591C27.899 49.4158 28.12 49.9497 28.5132 50.3434C28.9065 50.7371 29.4399 50.9583 29.996 50.9583C30.5521 50.9583 31.0855 50.7371 31.4788 50.3434C31.872 49.9497 32.093 49.4158 32.093 48.8591C32.093 47.1889 32.7557 45.5871 33.9355 44.4061C35.1153 43.225 36.7154 42.5616 38.3838 42.5616H55.1594C56.2717 42.5616 57.3385 42.1192 58.125 41.3319C58.9115 40.5446 59.3533 39.4767 59.3533 38.3632V4.77647C59.3533 3.663 58.9115 2.59513 58.125 1.80779C57.3385 1.02045 56.2717 0.578125 55.1594 0.578125ZM21.6082 38.3632H4.83258V4.77647H21.6082C23.2766 4.77647 24.8767 5.43995 26.0565 6.62097C27.2363 7.80198 27.899 9.40378 27.899 11.074V40.4624C26.0859 39.0966 23.8774 38.3596 21.6082 38.3632ZM55.1594 38.3632H38.3838C36.1146 38.3596 33.9061 39.0966 32.093 40.4624V11.074C32.093 9.40378 32.7557 7.80198 33.9355 6.62097C35.1153 5.43995 36.7154 4.77647 38.3838 4.77647H55.1594V38.3632ZM38.3838 11.074H48.8686C49.4247 11.074 49.9581 11.2951 50.3513 11.6888C50.7446 12.0825 50.9655 12.6164 50.9655 13.1732C50.9655 13.7299 50.7446 14.2638 50.3513 14.6575C49.9581 15.0512 49.4247 15.2723 48.8686 15.2723H38.3838C37.8277 15.2723 37.2943 15.0512 36.901 14.6575C36.5078 14.2638 36.2869 13.7299 36.2869 13.1732C36.2869 12.6164 36.5078 12.0825 36.901 11.6888C37.2943 11.2951 37.8277 11.074 38.3838 11.074ZM50.9655 21.5698C50.9655 22.1266 50.7446 22.6605 50.3513 23.0542C49.9581 23.4479 49.4247 23.669 48.8686 23.669H38.3838C37.8277 23.669 37.2943 23.4479 36.901 23.0542C36.5078 22.6605 36.2869 22.1266 36.2869 21.5698C36.2869 21.0131 36.5078 20.4792 36.901 20.0855C37.2943 19.6918 37.8277 19.4707 38.3838 19.4707H48.8686C49.4247 19.4707 49.9581 19.6918 50.3513 20.0855C50.7446 20.4792 50.9655 21.0131 50.9655 21.5698ZM50.9655 29.9665C50.9655 30.5233 50.7446 31.0572 50.3513 31.4509C49.9581 31.8445 49.4247 32.0657 48.8686 32.0657H38.3838C37.8277 32.0657 37.2943 31.8445 36.901 31.4509C36.5078 31.0572 36.2869 30.5233 36.2869 29.9665C36.2869 29.4098 36.5078 28.8759 36.901 28.4822C37.2943 28.0885 37.8277 27.8674 38.3838 27.8674H48.8686C49.4247 27.8674 49.9581 28.0885 50.3513 28.4822C50.7446 28.8759 50.9655 29.4098 50.9655 29.9665Z" fill="black"/>
</svg>
