<svg width="62" height="53" viewBox="0 0 62 53" fill="none" xmlns="http://www.w3.org/2000/svg">
<path d="M61.7351 49.8085C61.7351 50.4309 61.4879 51.0277 61.0478 51.4678C60.6077 51.9079 60.0109 52.1551 59.3885 52.1551H3.07023C2.44787 52.1551 1.85101 51.9079 1.41093 51.4678C0.970863 51.0277 0.723633 50.4309 0.723633 49.8085V2.87662C0.723633 2.25427 0.970863 1.6574 1.41093 1.21733C1.85101 0.77726 2.44787 0.530029 3.07023 0.530029C3.69258 0.530029 4.28945 0.77726 4.72952 1.21733C5.16959 1.6574 5.41682 2.25427 5.41682 2.87662V34.758L20.1828 19.9892C20.4007 19.771 20.6595 19.5979 20.9444 19.4798C21.2293 19.3617 21.5346 19.3009 21.843 19.3009C22.1514 19.3009 22.4567 19.3617 22.7416 19.4798C23.0265 19.5979 23.2853 19.771 23.5032 19.9892L31.2294 27.7183L46.6846 12.263H40.6157C39.9934 12.263 39.3965 12.0158 38.9565 11.5757C38.5164 11.1356 38.2692 10.5388 38.2692 9.91641C38.2692 9.29405 38.5164 8.69719 38.9565 8.25712C39.3965 7.81704 39.9934 7.56981 40.6157 7.56981H52.3487C52.9711 7.56981 53.5679 7.81704 54.008 8.25712C54.4481 8.69719 54.6953 9.29405 54.6953 9.91641V21.6494C54.6953 22.2717 54.4481 22.8686 54.008 23.3087C53.5679 23.7487 52.9711 23.996 52.3487 23.996C51.7264 23.996 51.1295 23.7487 50.6894 23.3087C50.2494 22.8686 50.0021 22.2717 50.0021 21.6494V15.5805L32.8896 32.696C32.6716 32.9142 32.4128 33.0872 32.128 33.2053C31.8431 33.3234 31.5377 33.3842 31.2294 33.3842C30.921 33.3842 30.6156 33.3234 30.3308 33.2053C30.0459 33.0872 29.7871 32.9142 29.5692 32.696L21.843 24.9669L5.41682 41.393V47.4619H59.3885C60.0109 47.4619 60.6077 47.7092 61.0478 48.1492C61.4879 48.5893 61.7351 49.1862 61.7351 49.8085Z" fill="black"/>
</svg>
