<svg width="62" height="62" viewBox="0 0 62 62" fill="none" xmlns="http://www.w3.org/2000/svg">
<path d="M45.5794 27.5385C52.1563 29.9447 56.0062 34.7571 56.0062 41.4142C56.0062 51.1993 47.745 56.8939 32.2652 56.8939H0.664062V0.749756H30.6611C46.1408 0.749756 53.3594 6.92562 53.3594 15.4274C53.3594 20.6408 50.7126 24.972 45.5794 27.5385ZM28.0945 13.9837H19.2718V22.3252H28.0945C32.3454 22.3252 34.2704 20.8815 34.2704 18.1545C34.2704 15.4274 32.3454 13.9837 28.0945 13.9837ZM30.6611 43.6599C34.8318 43.6599 36.9172 42.136 36.9172 39.2486C36.9172 36.3612 34.8318 34.8373 30.6611 34.8373H19.2718V43.6599H30.6611Z" fill="#263651"/>
<path d="M51.228 31.895C57.8048 34.3011 61.6547 39.1135 61.6547 45.7706C61.6547 55.5557 53.3935 61.2503 37.9138 61.2503H6.31262V5.10617H36.3097C51.7894 5.10617 59.0079 11.282 59.0079 19.7839C59.0079 24.9972 56.3611 29.3284 51.228 31.895ZM33.7431 18.3402H24.9204V26.6816H33.7431C37.994 26.6816 39.9189 25.2379 39.9189 22.5109C39.9189 19.7839 37.994 18.3402 33.7431 18.3402ZM36.3097 48.0164C40.4804 48.0164 42.5657 46.4924 42.5657 43.605C42.5657 40.7176 40.4804 39.1937 36.3097 39.1937H24.9204V48.0164H36.3097Z" fill="#00D2AC"/>
</svg>
