<svg width="57" height="52" viewBox="0 0 57 52" fill="none" xmlns="http://www.w3.org/2000/svg">
<path d="M17.8985 17.1985C17.8985 16.6281 18.1251 16.0809 18.5285 15.6775C18.9319 15.2742 19.479 15.0475 20.0495 15.0475H37.2576C37.828 15.0475 38.3752 15.2742 38.7785 15.6775C39.1819 16.0809 39.4086 16.6281 39.4086 17.1985C39.4086 17.769 39.1819 18.3161 38.7785 18.7195C38.3752 19.1229 37.828 19.3495 37.2576 19.3495H20.0495C19.479 19.3495 18.9319 19.1229 18.5285 18.7195C18.1251 18.3161 17.8985 17.769 17.8985 17.1985ZM20.0495 27.9536H37.2576C37.828 27.9536 38.3752 27.727 38.7785 27.3236C39.1819 26.9202 39.4086 26.3731 39.4086 25.8026C39.4086 25.2321 39.1819 24.685 38.7785 24.2816C38.3752 23.8782 37.828 23.6516 37.2576 23.6516H20.0495C19.479 23.6516 18.9319 23.8782 18.5285 24.2816C18.1251 24.685 17.8985 25.2321 17.8985 25.8026C17.8985 26.3731 18.1251 26.9202 18.5285 27.3236C18.9319 27.727 19.479 27.9536 20.0495 27.9536ZM56.6166 4.29249V38.7086C56.6166 39.8496 56.1634 40.9438 55.3566 41.7506C54.5498 42.5574 53.4556 43.0106 52.3146 43.0106H36.3246L32.3344 49.5416C31.9504 50.176 31.4088 50.7003 30.7624 51.0637C30.1159 51.4271 29.3865 51.6172 28.6449 51.6156C27.9034 51.6139 27.1748 51.4206 26.5299 51.0544C25.8851 50.6882 25.3458 50.1615 24.9645 49.5255L20.9825 43.0106H4.99244C3.85148 43.0106 2.75724 42.5574 1.95046 41.7506C1.14368 40.9438 0.69043 39.8496 0.69043 38.7086V4.29249C0.69043 3.15153 1.14368 2.05729 1.95046 1.25051C2.75724 0.443725 3.85148 -0.00952148 4.99244 -0.00952148H52.3146C53.4556 -0.00952148 54.5498 0.443725 55.3566 1.25051C56.1634 2.05729 56.6166 3.15153 56.6166 4.29249ZM52.3146 4.29249H4.99244V38.7086H20.9825C21.7231 38.7105 22.4508 38.9027 23.0958 39.2666C23.7408 39.6306 24.2815 40.1541 24.6661 40.787L28.6535 47.3126L32.6383 40.7736C33.0245 40.1426 33.5663 39.6213 34.2118 39.2598C34.8572 38.8982 35.5847 38.7084 36.3246 38.7086H52.3146V4.29249Z" fill="black"/>
</svg>
